<svg width="25" height="24" viewBox="0 0 25 24" fill="none" xmlns="http://www.w3.org/2000/svg">
<path d="M8.15716 3H16.5919C19.54 3 21.375 5.08119 21.375 8.02638V15.9736C21.375 18.9188 19.54 21 16.5909 21H8.15716C5.20905 21 3.375 18.9188 3.375 15.9736V8.02638C3.375 5.08119 5.21781 3 8.15716 3Z" stroke="black" stroke-width="1.5" stroke-linecap="round" stroke-linejoin="round"/>
<path d="M12.2195 8.82812C10.2852 8.82812 8.7168 10.3966 8.7168 12.3308C8.7168 14.2651 10.2852 15.8335 12.2195 15.8335C14.1538 15.8335 15.7222 14.2651 15.7222 12.3308C15.7222 10.3966 14.1538 8.82812 12.2195 8.82812Z" stroke="black" stroke-width="1.5" stroke-linecap="round" stroke-linejoin="round"/>
<path d="M17.2411 7.36374V7.43274M17.5231 7.37875C17.5231 7.53575 17.3961 7.66275 17.2391 7.66275C17.0821 7.66275 16.9541 7.53575 16.9541 7.37875C16.9541 7.22175 17.0821 7.09375 17.2391 7.09375C17.3961 7.09375 17.5231 7.22175 17.5231 7.37875Z" stroke="black" stroke-width="1.5" stroke-linecap="round" stroke-linejoin="round"/>
</svg>
