<?xml version="1.0" encoding="UTF-8"?>
<svg id="Layer_1" data-name="Layer 1" xmlns="http://www.w3.org/2000/svg" viewBox="0 0 280.47 83.56">
  <defs>
    <style>
      .cls-1 {
        fill: #010b40;
      }

      .cls-2 {
        fill: #fff;
      }
    </style>
  </defs>
  <path d="M9.85,67.02V11.63h27.14c4.17,0,7.73.79,10.68,2.37,2.95,1.58,5.21,3.81,6.76,6.69,1.56,2.88,2.33,6.29,2.33,10.25s-.83,7.49-2.49,10.45c-1.66,2.96-3.98,5.22-6.96,6.8-2.98,1.58-6.48,2.37-10.48,2.37h-13.06v16.46h-13.93ZM23.78,38.69h10.05c2.8,0,4.93-.59,6.41-1.78,1.48-1.19,2.22-3.18,2.22-5.97s-.74-4.76-2.22-5.89c-1.48-1.13-3.61-1.7-6.41-1.7h-10.05v15.35Z"/>
  <path d="M84.23,67.65c-2.22,0-4.33-.4-6.33-1.19-2.01-.79-3.64-2.04-4.91-3.76-1.27-1.71-1.9-3.86-1.9-6.45,0-3.48,1.07-6.16,3.21-8.03,2.14-1.87,5.42-3.28,9.85-4.23l11.63-2.61v-.16c.05-1.69-.53-2.94-1.74-3.76-1.21-.82-3.22-1.23-6.01-1.23-1.64,0-3.32.09-5.06.28-1.74.19-3.46.43-5.14.75l-2.06.4-1.98-8.31,2.53-.95c2.58-.9,5.12-1.61,7.6-2.14,2.48-.53,4.93-.79,7.36-.79,5.38,0,9.71,1.36,12.98,4.07,3.27,2.72,4.91,6.71,4.91,11.99v12.98c0,1.32.36,2.24,1.07,2.77.71.53,2.07.92,4.08,1.19l-.87,8.55c-.74.16-1.49.3-2.25.44-.77.13-1.41.2-1.94.2-3.06,0-5.5-.59-7.32-1.78-1.82-1.19-3.21-2.68-4.15-4.47l-1.74,1.5c-1.74,1.58-3.67,2.77-5.78,3.56-2.11.79-4.11,1.19-6.01,1.19ZM88.35,57.92c.84,0,1.78-.14,2.81-.44,1.03-.29,2.04-.75,3.05-1.38l1.58-.87v-7.04l-8.23,2.29c-1.42.37-2.4.88-2.93,1.54-.53.66-.79,1.44-.79,2.33,0,1.16.41,2.04,1.23,2.65.82.61,1.91.91,3.28.91Z"/>
  <path d="M119.68,67.02V26.19h9.81l1.34,5.22,3.09-2.45c1.48-1.16,3.02-2.03,4.63-2.61,1.61-.58,3.15-.87,4.63-.87.63-.05,1.31.04,2.02.28s1.41.62,2.1,1.15v11.24c-1.53.05-3.01.17-4.43.36-1.42.19-3.01.57-4.75,1.15l-4.98,1.35v26.03h-13.45Z"/>
  <path d="M152.75,67.02V8.62l13.45-2.53v35.21h3.56l10.6-15.11h14.48l-20.42,26.43h-8.23v14.4h-13.45ZM179.97,67.02l-9.5-15.19,8.47-10.68,16.38,25.87h-15.35Z"/>
  <path d="M213.52,67.65c-4.75,0-8.15-1.05-10.21-3.17-2.06-2.11-3.09-5.01-3.09-8.7V8.62l13.45-2.53v47.48c0,1.06.34,1.86,1.03,2.41.68.55,1.77.83,3.24.83.32,0,.68-.01,1.11-.04.42-.03.87-.07,1.35-.12l-.4,9.81c-.95.37-2.01.66-3.17.87-1.16.21-2.27.32-3.32.32Z"/>
  <path d="M232.2,83.56c-1.11,0-2.4-.11-3.88-.32-1.48-.21-3.14-.55-4.99-1.03l-3.17-.95,1.74-9.81,3.01.24c.9.05,1.74.1,2.53.16.79.05,1.5.08,2.14.08,1.42,0,2.56-.25,3.4-.75.84-.5,1.48-1.28,1.9-2.33l.95-2.37-16.3-40.28h14.8l8.55,25.64h.47l8.7-25.64h14.16l-20.26,48.58c-1.32,3.17-3.13,5.42-5.42,6.76-2.29,1.35-5.08,2.02-8.35,2.02Z"/>
  <path d="M271.45,67.81c-1.64,0-3.14-.4-4.51-1.19-1.37-.79-2.47-1.86-3.28-3.21-.82-1.34-1.23-2.81-1.23-4.39s.41-3.02,1.23-4.31c.82-1.29,1.9-2.33,3.24-3.13,1.34-.79,2.86-1.19,4.55-1.19s3.14.4,4.51,1.19c1.37.79,2.47,1.83,3.28,3.13.82,1.29,1.23,2.73,1.23,4.31s-.41,3.05-1.23,4.39c-.82,1.35-1.91,2.41-3.28,3.21-1.37.79-2.88,1.19-4.51,1.19Z"/>
  <g>
    <rect class="cls-1" width="66.63" height="78.65"/>
    <path class="cls-2" d="M9.85,67.02V11.63h27.14c4.17,0,7.73.79,10.68,2.37,2.95,1.58,5.21,3.81,6.76,6.69,1.56,2.88,2.33,6.29,2.33,10.25s-.83,7.49-2.49,10.45c-1.66,2.96-3.98,5.22-6.96,6.8-2.98,1.58-6.48,2.37-10.48,2.37h-13.06v16.46h-13.93ZM23.78,38.69h10.05c2.8,0,4.93-.59,6.41-1.78,1.48-1.19,2.22-3.18,2.22-5.97s-.74-4.76-2.22-5.89c-1.48-1.13-3.61-1.7-6.41-1.7h-10.05v15.35Z"/>
  </g>
</svg>